HIERARCHY
ROOT Hips
{
	OFFSET 0.000000 0.000000 0.000000
	CHANNELS 6 Xposition Yposition Zposition Xrotation Yrotation Zrotation
	JOINT LeftUpLeg_virtual
	{
		OFFSET 0.000000 0.000000 0.000000
		CHANNELS 3 Xrotation Yrotation Zrotation
		JOINT LeftUpLeg
		{
			OFFSET 15.427100 -6.655098 0.678600
			CHANNELS 3 Xrotation Yrotation Zrotation
			JOINT LeftLeg
			{
				OFFSET 4.081073 -39.591068 13.024000
				CHANNELS 3 Xrotation Yrotation Zrotation
				JOINT LeftFoot
				{
					OFFSET -4.081074 -37.707932 -15.979700
					CHANNELS 3 Xrotation Yrotation Zrotation
					JOINT LeftToeBase
					{
						OFFSET 5.346399 -15.068900 20.645000
						CHANNELS 3 Xrotation Yrotation Zrotation
						JOINT LeftToe_End
						{
							OFFSET 2.754700 0.931300 11.300900
							CHANNELS 3 Xrotation Yrotation Zrotation
							End Site
							{
								OFFSET 0 0 0
							}
						}
					}
				}
			}
		}
	}
	JOINT RightUpLeg_virtual
	{
		OFFSET 0.000000 0.000000 0.000000
		CHANNELS 3 Xrotation Yrotation Zrotation
		JOINT RightUpLeg
		{
			OFFSET -15.569500 -6.655098 0.678600
			CHANNELS 3 Xrotation Yrotation Zrotation
			JOINT RightLeg
			{
				OFFSET -4.081825 -39.591045 13.023800
				CHANNELS 3 Xrotation Yrotation Zrotation
				JOINT RightFoot
				{
					OFFSET 4.081824 -37.707954 -15.979600
					CHANNELS 3 Xrotation Yrotation Zrotation
					JOINT RightToeBase
					{
						OFFSET -5.346400 -15.068900 20.645000
						CHANNELS 3 Xrotation Yrotation Zrotation
						JOINT RightToe_End
						{
							OFFSET -2.754700 0.931300 11.300900
							CHANNELS 3 Xrotation Yrotation Zrotation
							End Site
							{
								OFFSET 0 0 0
							}
						}
					}
				}
			}
		}
	}
	JOINT Spine_virtual
	{
		OFFSET 0.000000 0.000000 0.000000
		CHANNELS 3 Xrotation Yrotation Zrotation
		JOINT Spine
		{
			OFFSET -0.279200 12.230698 -2.892100
			CHANNELS 3 Xrotation Yrotation Zrotation
			JOINT Spine1
			{
				OFFSET -0.232667 10.192268 -1.242267
				CHANNELS 3 Xrotation Yrotation Zrotation
				JOINT Spine1_split
				{
					OFFSET -0.232667 10.192268 -1.242267
					CHANNELS 3 Xrotation Yrotation Zrotation
					JOINT Spine2
					{
						OFFSET -0.232667 10.192268 -1.242267
						CHANNELS 3 Xrotation Yrotation Zrotation
						JOINT Neck_virtual
						{
							OFFSET 0.000000 0.000000 0.000000
							CHANNELS 3 Xrotation Yrotation Zrotation
							JOINT Neck
							{
								OFFSET -0.418800 17.814194 8.416900
								CHANNELS 3 Xrotation Yrotation Zrotation
								JOINT Head
								{
									OFFSET 0.000000 7.031097 3.806800
									CHANNELS 3 Xrotation Yrotation Zrotation
									JOINT HeadTop_End
									{
										OFFSET 0.000000 24.646606 12.978600
										CHANNELS 3 Xrotation Yrotation Zrotation
										End Site
										{
											OFFSET 0 0 0
										}
									}
								}
							}
						}
						JOINT LeftShoulder_virtual
						{
							OFFSET 0.000000 0.000000 0.000000
							CHANNELS 3 Xrotation Yrotation Zrotation
							JOINT LeftShoulder
							{
								OFFSET 8.476499 7.247704 -3.868750
								CHANNELS 3 Xrotation Yrotation Zrotation
								JOINT LeftShoulder_split
								{
									OFFSET 8.476499 7.247704 -3.868750
									CHANNELS 3 Xrotation Yrotation Zrotation
									JOINT LeftArm
									{
										OFFSET 9.308998 -2.777710 0.208600
										CHANNELS 3 Xrotation Yrotation Zrotation
										JOINT LeftForeArm
										{
											OFFSET 29.972298 0.000000 0.000000
											CHANNELS 3 Xrotation Yrotation Zrotation
											JOINT LeftHand
											{
												OFFSET 26.026505 0.000000 0.000000
												CHANNELS 3 Xrotation Yrotation Zrotation
												End Site
												{
													OFFSET 0 0 0
												}
											}
										}
									}
								}
							}
						}
						JOINT RightShoulder_virtual
						{
							OFFSET 0.000000 0.000000 0.000000
							CHANNELS 3 Xrotation Yrotation Zrotation
							JOINT RightShoulder
							{
								OFFSET -7.570500 7.247704 -3.868750
								CHANNELS 3 Xrotation Yrotation Zrotation
								JOINT RightShoulder_split
								{
									OFFSET -7.570500 7.247704 -3.868750
									CHANNELS 3 Xrotation Yrotation Zrotation
									JOINT RightArm
									{
										OFFSET -9.308998 -2.777710 0.208500
										CHANNELS 3 Xrotation Yrotation Zrotation
										JOINT RightForeArm
										{
											OFFSET -29.972300 0.000000 0.000000
											CHANNELS 3 Xrotation Yrotation Zrotation
											JOINT RightHand
											{
												OFFSET -26.026505 0.000000 0.000000
												CHANNELS 3 Xrotation Yrotation Zrotation
												End Site
												{
													OFFSET 0 0 0
												}
											}
										}
									}
								}
							}
						}
					}
				}
			}
		}
	}
}
MOTION
Frames: 8
Frame Time: 0.03333333
1.775312 26.249626 -31.149643 0.000000 0.000000 0.000000 38.776217 3.938182 2.017526 -58.470094 -40.273609 35.523670 117.686400 -27.134648 -18.888222 36.775781 2.438090 -17.968792 11.561670 7.219857 36.074836 0.000000 0.000000 0.000000 38.776217 3.938182 2.017526 -34.865274 33.857569 -54.525950 113.506693 35.000451 23.220871 17.585434 8.946141 10.321037 32.233036 14.359539 4.789328 0.000000 0.000000 0.000000 38.776217 3.938182 2.017526 20.932453 5.556848 -4.647211 15.516006 2.138018 -0.928597 0.000000 0.000000 0.000000 0.000000 0.000000 0.000000 15.624812 1.316322 -1.767701 5.240117 -1.505189 2.906323 -2.689061 -9.770848 5.427026 0.000000 0.000000 0.000000 15.624812 1.316322 -1.767701 1.844620 -37.468352 -5.605138 0.000000 0.000000 0.000000 -61.538604 -38.718929 -55.618101 0.000003 -59.628480 -0.000003 0.000000 0.000000 0.000000 15.624812 1.316322 -1.767701 0.270149 16.345259 0.362630 0.000000 0.000000 0.000000 -41.540647 20.444402 40.456676 0.000022 65.923763 -0.000037 0.000000 0.000000 0.000000 
1.645906 25.609970 -32.151367 0.000000 0.000000 0.000000 35.544417 2.623614 2.026107 -51.603712 -42.197687 41.621561 117.004364 -31.018013 -20.930177 36.686292 2.524816 -17.527406 11.552484 7.222432 36.086519 0.000000 0.000000 0.000000 35.544417 2.623614 2.026107 -33.871233 36.608059 -55.334583 114.188113 36.655914 23.567073 19.837426 8.842169 9.998384 32.252283 14.474346 4.832043 0.000000 0.000000 0.000000 35.544417 2.623614 2.026107 20.878107 5.416863 -5.700767 16.625271 2.079676 -1.485669 0.000000 0.000000 0.000000 0.000000 0.000000 0.000000 17.328743 1.234475 -2.301334 5.476095 -1.525564 3.253846 0.036677 -8.619862 6.396879 0.000000 0.000000 0.000000 17.328743 1.234475 -2.301334 1.353983 -36.456654 -6.881256 0.000000 0.000000 0.000000 -62.004491 -39.879897 -54.567727 -0.000033 -60.951870 -0.000057 0.000000 0.000000 0.000000 17.328743 1.234475 -2.301334 0.501215 13.720776 0.229926 0.000000 0.000000 0.000000 -44.186877 22.328119 43.767897 -0.000029 66.681976 0.000032 0.000000 0.000000 0.000000 
1.514031 25.112686 -33.124603 0.000000 0.000000 0.000000 31.515975 1.268865 1.934559 -43.223855 -43.413946 47.749173 115.956122 -34.630374 -23.021559 36.315341 2.668474 -17.253316 11.539961 7.229546 36.105480 0.000000 0.000000 0.000000 31.515975 1.268865 1.934559 -34.895433 38.676216 -53.079374 115.877492 36.966958 22.214535 22.246375 8.114039 10.412570 32.360603 14.921448 4.983166 0.000000 0.000000 0.000000 31.515975 1.268865 1.934559 21.403299 4.699996 -6.694256 17.202564 1.870332 -1.986119 0.000000 0.000000 0.000000 0.000000 0.000000 0.000000 18.500459 1.040077 -2.690536 5.684557 -1.489047 3.465680 2.673363 -7.397687 7.196646 0.000000 0.000000 0.000000 18.500459 1.040077 -2.690536 -0.501357 -31.291074 -12.871381 0.000000 0.000000 0.000000 -60.476708 -44.977376 -51.911743 0.000019 -61.886493 0.000020 0.000000 0.000000 0.000000 18.500459 1.040077 -2.690536 0.552208 11.477479 0.087595 0.000000 0.000000 0.000000 -48.643207 26.757867 49.917167 -0.000001 63.773558 0.000018 0.000000 0.000000 0.000000 
1.373180 24.937492 -33.620438 0.000000 0.000000 0.000000 29.045554 0.498052 1.886855 -36.653565 -44.206835 52.885438 114.543761 -36.916168 -25.115400 36.203042 2.222535 -16.574089 11.542302 7.230039 36.093281 0.000000 0.000000 0.000000 29.045554 0.498052 1.886855 -36.876191 39.135410 -49.319150 117.267873 36.616709 20.761606 23.169195 6.568457 11.351450 32.496097 15.412151 5.138276 0.000000 0.000000 0.000000 29.045554 0.498052 1.886855 21.573544 3.919316 -7.057322 17.359178 1.662022 -2.184652 0.000000 0.000000 0.000000 0.000000 0.000000 0.000000 18.863268 0.849936 -2.748510 5.745516 -1.402226 3.348720 4.259341 -6.738456 7.407414 0.000000 0.000000 0.000000 18.863268 0.849936 -2.748510 -1.471515 -24.595007 -20.000997 0.000000 0.000000 0.000000 -56.443727 -50.000516 -47.503474 -0.000048 -67.329403 -0.000053 0.000000 0.000000 0.000000 18.863268 0.849936 -2.748510 0.263097 11.153646 0.069189 0.000000 0.000000 0.000000 -51.972067 29.135671 55.668299 -0.000013 63.901529 0.000008 0.000000 0.000000 0.000000 
1.239471 24.898613 -33.905884 0.000000 0.000000 0.000000 27.271127 -0.035519 1.869207 -32.263788 -44.295747 55.994379 113.771574 -37.842667 -26.135178 36.053539 1.627085 -15.932251 11.570571 7.221963 36.046504 0.000000 0.000000 0.000000 27.271127 -0.035519 1.869207 -37.010603 39.780681 -47.330291 117.387401 37.198583 20.911044 23.544050 5.083087 12.125726 32.591320 15.752525 5.242933 0.000000 0.000000 0.000000 27.271127 -0.035519 1.869207 21.574080 3.160405 -7.174411 17.366659 1.463864 -2.265014 0.000000 0.000000 0.000000 0.000000 0.000000 0.000000 18.915893 0.669725 -2.681169 5.753607 -1.299038 3.107464 5.454242 -6.327088 7.391638 0.000000 0.000000 0.000000 18.915893 0.669725 -2.681169 -1.505344 -20.967100 -23.570356 0.000000 0.000000 0.000000 -51.635329 -49.991579 -43.575477 0.000105 -74.725753 0.000107 0.000000 0.000000 0.000000 18.915893 0.669725 -2.681169 0.078027 10.725506 0.114943 0.000000 0.000000 0.000000 -53.386507 29.562213 60.897700 0.000014 65.806229 0.000004 0.000000 0.000000 0.000000 
1.165679 24.872589 -34.171982 0.000000 0.000000 0.000000 25.503742 -0.557395 1.810782 -29.738907 -43.609166 56.776917 114.050895 -37.733124 -25.707934 35.570703 1.279852 -15.649157 11.598454 7.216275 36.004990 0.000000 0.000000 0.000000 25.503742 -0.557395 1.810782 -37.967089 39.909690 -44.780749 118.199661 36.734779 20.028447 24.112309 4.271693 12.765427 32.629791 15.856853 5.270671 0.000000 0.000000 0.000000 25.503742 -0.557395 1.810782 21.573508 2.407961 -7.267273 17.369205 1.267242 -2.344663 0.000000 0.000000 0.000000 0.000000 0.000000 0.000000 18.959973 0.491063 -2.613836 5.762310 -1.196953 2.867356 6.643871 -5.935149 7.371949 0.000000 0.000000 0.000000 18.959973 0.491063 -2.613836 -1.471819 -20.158955 -23.820408 0.000000 0.000000 0.000000 -50.248947 -46.850019 -43.581419 0.000092 -76.454228 0.000093 0.000000 0.000000 0.000000 18.959973 0.491063 -2.613836 0.165542 10.138402 0.143772 0.000000 0.000000 0.000000 -55.185982 31.021421 65.611275 0.000026 62.565264 -0.000013 0.000000 0.000000 0.000000 
1.169432 24.853836 -34.419914 0.000000 0.000000 0.000000 23.782268 -1.053258 1.704718 -28.575032 -42.430194 55.743670 114.938109 -37.092135 -24.453317 34.744633 1.417173 -15.821874 11.608889 7.214143 35.991853 0.000000 0.000000 0.000000 23.782268 -1.053258 1.704718 -40.087183 39.209254 -41.150213 119.890297 34.878962 17.773257 24.744773 4.098540 13.467702 32.647782 15.811359 5.244039 0.000000 0.000000 0.000000 23.782268 -1.053258 1.704718 21.574314 1.676018 -7.313824 17.350969 1.076122 -2.418485 0.000000 0.000000 0.000000 0.000000 0.000000 0.000000 18.965369 0.318032 -2.542869 5.765358 -1.098335 2.627598 7.803517 -5.592897 7.346253 0.000000 0.000000 0.000000 18.965369 0.318032 -2.542869 -1.448656 -19.889156 -23.635842 0.000000 0.000000 0.000000 -50.808486 -43.430957 -46.361982 -0.000011 -74.462736 -0.000001 0.000000 0.000000 0.000000 18.965369 0.318032 -2.542869 0.313432 10.174088 0.164291 0.000000 0.000000 0.000000 -56.677746 33.253100 68.805659 0.000022 56.654384 -0.000023 0.000000 0.000000 0.000000 
1.219913 24.872269 -34.618988 0.000000 0.000000 0.000000 22.218025 -1.494060 1.582371 -28.177179 -40.928768 53.747947 116.083026 -36.069464 -22.823593 33.709903 1.805762 -16.216963 11.616856 7.213455 35.991808 0.000000 0.000000 0.000000 22.218025 -1.494060 1.582371 -43.193771 37.283257 -36.357517 122.173998 31.645844 14.418464 25.200379 4.135641 14.303267 32.583660 15.700752 5.224271 0.000000 0.000000 0.000000 22.218025 -1.494060 1.582371 21.608644 1.016145 -7.305869 17.251444 0.909332 -2.474857 0.000000 0.000000 0.000000 0.000000 0.000000 0.000000 18.816143 0.170039 -2.465168 5.753140 -1.016960 2.399505 8.849506 -5.421281 7.330569 0.000000 0.000000 0.000000 18.816143 0.170039 -2.465168 -1.372370 -19.720805 -23.243544 0.000000 0.000000 0.000000 -51.195236 -39.515677 -49.541070 0.000002 -73.107046 -0.000004 0.000000 0.000000 0.000000 18.816143 0.170039 -2.465168 0.427262 10.432676 0.182406 0.000000 0.000000 0.000000 -57.087332 35.205274 70.850536 0.000007 51.993224 -0.000005 0.000000 0.000000 0.000000 
